<svg width="40" height="40" viewBox="0 0 40 40" fill="none" xmlns="http://www.w3.org/2000/svg">
<path d="M26.9125 7.65625V37.9688H2.03125V2.03125H21.2875L26.9125 7.65625Z" fill="#F5F6FA"/>
<path d="M9.84375 4.45312H7.96875C7.82371 4.45312 7.68461 4.39551 7.58205 4.29295C7.47949 4.19039 7.42188 4.05129 7.42188 3.90625C7.42188 3.76121 7.47949 3.62211 7.58205 3.51955C7.68461 3.41699 7.82371 3.35938 7.96875 3.35938H9.84375C9.98879 3.35938 10.1279 3.41699 10.2304 3.51955C10.333 3.62211 10.3906 3.76121 10.3906 3.90625C10.3906 4.05129 10.333 4.19039 10.2304 4.29295C10.1279 4.39551 9.98879 4.45312 9.84375 4.45312Z" fill="#D1D5DA"/>
<path d="M26.9125 7.65625H21.2875V2.03125L26.9125 7.65625Z" fill="#D1D5DA"/>
<path d="M23.925 12.7869H5.01874C4.8737 12.7869 4.7346 12.7292 4.63204 12.6267C4.52948 12.5241 4.47186 12.385 4.47186 12.24C4.47186 12.0949 4.52948 11.9559 4.63204 11.8533C4.7346 11.7507 4.8737 11.6931 5.01874 11.6931H23.925C24.07 11.6931 24.2091 11.7507 24.3117 11.8533C24.4142 11.9559 24.4719 12.0949 24.4719 12.24C24.4719 12.385 24.4142 12.5241 24.3117 12.6267C24.2091 12.7292 24.07 12.7869 23.925 12.7869Z" fill="#D1D5DA"/>
<path d="M23.925 15.2875H5.01874C4.8737 15.2875 4.7346 15.2299 4.63204 15.1273C4.52948 15.0247 4.47186 14.8856 4.47186 14.7406C4.47186 14.5956 4.52948 14.4565 4.63204 14.3539C4.7346 14.2513 4.8737 14.1937 5.01874 14.1937H23.925C24.07 14.1937 24.2091 14.2513 24.3117 14.3539C24.4142 14.4565 24.4719 14.5956 24.4719 14.7406C24.4719 14.8856 24.4142 15.0247 24.3117 15.1273C24.2091 15.2299 24.07 15.2875 23.925 15.2875Z" fill="#D1D5DA"/>
<path d="M22.0531 17.7875H5.01874C4.8737 17.7875 4.7346 17.7299 4.63204 17.6273C4.52948 17.5247 4.47186 17.3856 4.47186 17.2406C4.47186 17.0956 4.52948 16.9565 4.63204 16.8539C4.7346 16.7513 4.8737 16.6937 5.01874 16.6937H22.0531C22.1981 16.6937 22.3372 16.7513 22.4398 16.8539C22.5424 16.9565 22.6 17.0956 22.6 17.2406C22.6 17.3856 22.5424 17.5247 22.4398 17.6273C22.3372 17.7299 22.1981 17.7875 22.0531 17.7875Z" fill="#D1D5DA"/>
<path d="M21.0719 20.2875H5.01874C4.8737 20.2875 4.7346 20.2299 4.63204 20.1273C4.52948 20.0247 4.47186 19.8856 4.47186 19.7406C4.47186 19.5956 4.52948 19.4565 4.63204 19.3539C4.7346 19.2513 4.8737 19.1937 5.01874 19.1937H21.0719C21.2169 19.1937 21.356 19.2513 21.4586 19.3539C21.5611 19.4565 21.6187 19.5956 21.6187 19.7406C21.6187 19.8856 21.5611 20.0247 21.4586 20.1273C21.356 20.2299 21.2169 20.2875 21.0719 20.2875Z" fill="#D1D5DA"/>
<path d="M21.0219 22.7906H5.01874C4.8737 22.7906 4.7346 22.733 4.63204 22.6305C4.52948 22.5279 4.47186 22.3888 4.47186 22.2438C4.47186 22.0987 4.52948 21.9596 4.63204 21.8571C4.7346 21.7545 4.8737 21.6969 5.01874 21.6969H21.0219C21.1669 21.6969 21.306 21.7545 21.4086 21.8571C21.5111 21.9596 21.5687 22.0987 21.5687 22.2438C21.5687 22.3888 21.5111 22.5279 21.4086 22.6305C21.306 22.733 21.1669 22.7906 21.0219 22.7906Z" fill="#D1D5DA"/>
<path d="M21.8937 25.2906H5.01874C4.8737 25.2906 4.7346 25.233 4.63204 25.1305C4.52948 25.0279 4.47186 24.8888 4.47186 24.7438C4.47186 24.5987 4.52948 24.4596 4.63204 24.3571C4.7346 24.2545 4.8737 24.1969 5.01874 24.1969H21.8937C22.0388 24.1969 22.1779 24.2545 22.2804 24.3571C22.383 24.4596 22.4406 24.5987 22.4406 24.7438C22.4406 24.8888 22.383 25.0279 22.2804 25.1305C22.1779 25.233 22.0388 25.2906 21.8937 25.2906Z" fill="#D1D5DA"/>
<path d="M23.925 27.7909H5.01874C4.8737 27.7909 4.7346 27.7333 4.63204 27.6307C4.52948 27.5282 4.47186 27.3891 4.47186 27.244C4.47186 27.099 4.52948 26.9599 4.63204 26.8573C4.7346 26.7548 4.8737 26.6971 5.01874 26.6971H23.925C24.07 26.6971 24.2091 26.7548 24.3117 26.8573C24.4142 26.9599 24.4719 27.099 24.4719 27.244C24.4719 27.3891 24.4142 27.5282 24.3117 27.6307C24.2091 27.7333 24.07 27.7909 23.925 27.7909Z" fill="#D1D5DA"/>
<path d="M23.925 30.2915H5.01874C4.8737 30.2915 4.7346 30.2339 4.63204 30.1313C4.52948 30.0288 4.47186 29.8897 4.47186 29.7446C4.47186 29.5996 4.52948 29.4605 4.63204 29.3579C4.7346 29.2554 4.8737 29.1978 5.01874 29.1978H23.925C24.07 29.1978 24.2091 29.2554 24.3117 29.3579C24.4142 29.4605 24.4719 29.5996 24.4719 29.7446C24.4719 29.8897 24.4142 30.0288 24.3117 30.1313C24.2091 30.2339 24.07 30.2915 23.925 30.2915Z" fill="#D1D5DA"/>
<path d="M23.925 32.7922H5.01874C4.8737 32.7922 4.7346 32.7346 4.63204 32.6321C4.52948 32.5295 4.47186 32.3904 4.47186 32.2454C4.47186 32.1003 4.52948 31.9612 4.63204 31.8587C4.7346 31.7561 4.8737 31.6985 5.01874 31.6985H23.925C24.07 31.6985 24.2091 31.7561 24.3117 31.8587C24.4142 31.9612 24.4719 32.1003 24.4719 32.2454C24.4719 32.3904 24.4142 32.5295 24.3117 32.6321C24.2091 32.7346 24.07 32.7922 23.925 32.7922Z" fill="#D1D5DA"/>
<path d="M23.925 35.2869H5.01874C4.8737 35.2869 4.7346 35.2292 4.63204 35.1267C4.52948 35.0241 4.47186 34.885 4.47186 34.74C4.47186 34.5949 4.52948 34.4559 4.63204 34.3533C4.7346 34.2507 4.8737 34.1931 5.01874 34.1931H23.925C24.07 34.1931 24.2091 34.2507 24.3117 34.3533C24.4142 34.4559 24.4719 34.5949 24.4719 34.74C24.4719 34.885 24.4142 35.0241 24.3117 35.1267C24.2091 35.2292 24.07 35.2869 23.925 35.2869Z" fill="#D1D5DA"/>
<path d="M32.8915 34.2957L33.47 32.5151L31.6893 31.9369L32.2675 30.1563L30.484 29.5772L27.4622 23.6488L29.1328 22.7972L30.8031 21.9457L37.9687 36.0029L36.8662 37.9688L34.6278 37.706L34.0931 36.6569L34.6722 34.8738L32.8915 34.2957Z" fill="#313647"/>
<path d="M28.2806 26.5944C31.3009 26.5944 33.7494 24.1459 33.7494 21.1256C33.7494 18.1053 31.3009 15.6569 28.2806 15.6569C25.2603 15.6569 22.8119 18.1053 22.8119 21.1256C22.8119 24.1459 25.2603 26.5944 28.2806 26.5944Z" fill="#009A44"/>
<path d="M27.4528 20.9075C28.2293 20.9075 28.8587 20.278 28.8587 19.5015C28.8587 18.725 28.2293 18.0956 27.4528 18.0956C26.6763 18.0956 26.0469 18.725 26.0469 19.5015C26.0469 20.278 26.6763 20.9075 27.4528 20.9075Z" fill="#313647"/>
</svg>
