<svg width="26" height="26" viewBox="0 0 26 26" fill="none" xmlns="http://www.w3.org/2000/svg">
<circle cx="13" cy="13" r="13" fill="#EBFAE8"/>
<rect width="20" height="20" transform="translate(3 2.5)" fill="#EBFAE8"/>
<path d="M9.66675 9.16675C9.66675 8.50371 9.97404 7.86782 10.521 7.39898C11.068 6.93014 11.8099 6.66675 12.5834 6.66675H13.4167C14.1903 6.66675 14.9322 6.93014 15.4791 7.39898C16.0261 7.86782 16.3334 8.50371 16.3334 9.16675C16.3641 9.70779 16.2182 10.2442 15.9176 10.6951C15.617 11.146 15.178 11.487 14.6667 11.6667C14.1555 11.9064 13.7165 12.3611 13.4159 12.9623C13.1153 13.5635 12.9694 14.2787 13.0001 15.0001" stroke="#009A44" stroke-width="2" stroke-linecap="round" stroke-linejoin="round"/>
<path d="M13 18.3333V18.3416" stroke="#009A44" stroke-width="2" stroke-linecap="round" stroke-linejoin="round"/>
</svg>
