<svg width="110" height="110" viewBox="0 0 110 110" fill="none" xmlns="http://www.w3.org/2000/svg">
<g filter="url(#filter0_d_618_20642)">
<circle cx="55" cy="35" r="30" fill="white"/>
</g>
<mask id="mask0_618_20642" style="mask-type:alpha" maskUnits="userSpaceOnUse" x="30" y="10" width="50" height="50">
<circle cx="55" cy="35" r="25" fill="#C4C4C4"/>
</mask>
<g mask="url(#mask0_618_20642)">
<mask id="mask1_618_20642" style="mask-type:alpha" maskUnits="userSpaceOnUse" x="30" y="10" width="50" height="50">
<circle cx="55" cy="35" r="25" fill="#C4C4C4"/>
</mask>
<g mask="url(#mask1_618_20642)">
<g clip-path="url(#clip0_618_20642)">
<path d="M54.6095 88.0022C79.3383 88.0022 99.385 67.9339 99.385 43.1784C99.385 18.4228 79.3383 -1.64551 54.6095 -1.64551C29.8807 -1.64551 9.83398 18.4228 9.83398 43.1784C9.83398 67.9339 29.8807 88.0022 54.6095 88.0022Z" fill="white"/>
<path d="M59.4403 21.3984C59.4403 21.3984 56.3113 16.0496 49.541 17.6432C42.2949 19.3468 43.9967 27.1502 45.369 29.0186C52.7432 39.1301 49.8703 35.8878 54.6462 35.4848C60.5564 34.9903 58.1045 35.5398 60.6845 31.6015C63.0816 27.9379 63.7769 21.8563 59.4403 21.3984Z" fill="#20120C"/>
<path d="M58.8547 29.8797C58.8547 29.8797 58.9279 22.9372 51.3159 21.9297C46.1375 21.2337 44.5273 26.0879 44.4175 32.6274C44.3077 39.1669 46.2473 43.4533 50.6937 42.4824C55.3781 41.4383 58.1594 39.2585 59.2573 35.7414C59.2573 35.7414 62.862 35.3751 62.5692 31.4917C62.2216 27.187 58.8547 29.8797 58.8547 29.8797Z" fill="#E5AF9C"/>
<path d="M48.3149 48.8936C48.3149 48.8936 50.3643 48.0143 50.3826 41.1634L59.9159 34.2576C59.9159 34.2576 60.1355 46.3657 62.6241 48.0143C62.6241 48.0143 61.3615 61.423 53.9325 61.771C49.4128 61.9725 48.7175 52.2274 48.3149 48.8936Z" fill="#E5AF9C"/>
<path d="M49.3397 29.4033C49.3397 29.4033 48.1503 32.0411 47.4184 33.0669C46.7414 34.0011 47.821 34.6239 49.541 34.1843C50.218 34.0194 49.3397 29.4033 49.3397 29.4033Z" fill="#D39784"/>
<path d="M48.315 48.8937C48.315 48.8937 52.0844 56.3124 53.3653 56.3674C54.5363 56.4223 59.733 51.6963 62.6058 48.0144C62.6058 48.0144 90.7849 51.0552 99.3667 73.2931C99.3667 73.2931 59.3121 109.013 18.8916 74.612C18.9099 74.6303 28.0956 52.9236 48.315 48.8937Z" fill="#F8B001"/>
<path d="M45.8996 30.4657C46.3543 30.4657 46.723 30.0967 46.723 29.6414C46.723 29.1862 46.3543 28.8171 45.8996 28.8171C45.4448 28.8171 45.0762 29.1862 45.0762 29.6414C45.0762 30.0967 45.4448 30.4657 45.8996 30.4657Z" fill="#20120C"/>
<path d="M53.0907 30.4657C53.5455 30.4657 53.9142 30.0967 53.9142 29.6414C53.9142 29.1862 53.5455 28.8171 53.0907 28.8171C52.636 28.8171 52.2673 29.1862 52.2673 29.6414C52.2673 30.0967 52.636 30.4657 53.0907 30.4657Z" fill="#20120C"/>
<path d="M54.6461 26.3992C54.0422 26.3076 53.4384 26.271 52.8346 26.271C52.3954 26.271 52.066 26.7656 52.1026 27.1869C52.1575 27.6632 52.5601 27.9196 53.0175 27.9196C53.475 27.9196 53.9324 27.9562 54.3716 28.0295C55.4329 28.1761 55.7074 26.5641 54.6461 26.3992Z" fill="#20120C"/>
<path d="M45.9363 26.106C45.7167 26.0877 45.4971 26.0877 45.2775 26.106C45.0579 26.6556 44.9482 27.2417 44.8201 27.8279C44.8567 27.8279 44.8933 27.8279 44.9299 27.8096C45.003 27.7913 45.0945 27.773 45.1677 27.7546C45.2043 27.7546 45.2409 27.7363 45.2775 27.7363C45.2775 27.7363 45.2958 27.7363 45.3141 27.7363C45.4971 27.7363 45.6801 27.7363 45.8631 27.7363C46.2839 27.7546 46.7231 27.37 46.7231 26.9486C46.7231 26.509 46.3937 26.1427 45.9363 26.106Z" fill="#20120C"/>
<path d="M57.9763 25.1536C57.9763 25.1536 57.9763 33.2318 56.055 34.4041C54.1337 35.5948 44.454 34.7521 44.454 34.7521C44.454 34.7521 44.1063 39.8628 45.7531 41.5298C47.4183 43.1967 52.0843 43.9477 54.646 42.2075C57.2078 40.4673 59.1291 39.1301 59.3852 29.5132C59.3852 29.5315 59.8244 25.6115 57.9763 25.1536Z" fill="#20120C"/>
<path d="M47.1438 37.3715L51.1511 36.9502C51.1511 36.9502 51.2609 38.5438 49.3396 38.727C47.4732 38.9102 47.1438 37.3715 47.1438 37.3715Z" fill="white"/>
</g>
</g>
</g>
<defs>
<filter id="filter0_d_618_20642" x="0" y="0" width="110" height="110" filterUnits="userSpaceOnUse" color-interpolation-filters="sRGB">
<feFlood flood-opacity="0" result="BackgroundImageFix"/>
<feColorMatrix in="SourceAlpha" type="matrix" values="0 0 0 0 0 0 0 0 0 0 0 0 0 0 0 0 0 0 127 0" result="hardAlpha"/>
<feMorphology radius="15" operator="erode" in="SourceAlpha" result="effect1_dropShadow_618_20642"/>
<feOffset dy="20"/>
<feGaussianBlur stdDeviation="20"/>
<feComposite in2="hardAlpha" operator="out"/>
<feColorMatrix type="matrix" values="0 0 0 0 0.466667 0 0 0 0 0.478431 0 0 0 0 0.564706 0 0 0 0.5 0"/>
<feBlend mode="normal" in2="BackgroundImageFix" result="effect1_dropShadow_618_20642"/>
<feBlend mode="normal" in="SourceGraphic" in2="effect1_dropShadow_618_20642" result="shape"/>
</filter>
<clipPath id="clip0_618_20642">
<rect width="89.8438" height="91.4062" fill="white" transform="translate(9.6875 -1.71875)"/>
</clipPath>
</defs>
</svg>
