<svg width="110" height="110" viewBox="0 0 110 110" fill="none" xmlns="http://www.w3.org/2000/svg">
<g filter="url(#filter0_d_618_20845)">
<circle cx="55" cy="35" r="30" fill="white"/>
</g>
<mask id="mask0_618_20845" style="mask-type:alpha" maskUnits="userSpaceOnUse" x="30" y="10" width="50" height="50">
<circle cx="55" cy="35" r="25" fill="#C4C4C4"/>
</mask>
<g mask="url(#mask0_618_20845)">
<mask id="mask1_618_20845" style="mask-type:alpha" maskUnits="userSpaceOnUse" x="30" y="10" width="50" height="50">
<circle cx="55" cy="35" r="25" fill="#C4C4C4"/>
</mask>
<g mask="url(#mask1_618_20845)">
<g clip-path="url(#clip0_618_20845)">
<path d="M58.2396 73.6874C76.908 73.6874 92.0417 58.5537 92.0417 39.8853C92.0417 21.217 76.908 6.08325 58.2396 6.08325C39.5712 6.08325 24.4375 21.217 24.4375 39.8853C24.4375 58.5537 39.5712 73.6874 58.2396 73.6874Z" fill="white"/>
<path d="M57.323 21.8042C57.323 21.8042 60.0043 25.2417 63.9918 25.5396C67.9793 25.8604 79.1168 27.9 87.6418 35.9667C96.0522 43.9188 93.5084 52.0084 92.0418 54.3229C84.548 66.1938 65.0001 60.8313 54.9626 46.1646C44.948 31.4979 57.323 21.8042 57.323 21.8042Z" fill="#20120C"/>
<path d="M57.2772 22.5145C55.6959 21.6437 52.2355 21.1395 50.2188 21.3687C46.6209 21.8041 42.6563 23.9124 43.9397 30.7416C45.7501 40.3666 55.1001 38.4187 58.5376 34.8208C61.3793 31.9103 61.7918 24.9666 57.2772 22.5145Z" fill="#20120C"/>
<path d="M51.0208 19.5813C51.3416 21.9646 52.7395 23.7292 55.1229 23.4084C58.4 22.95 60.5312 20.3146 60.2104 17.9313C59.8896 15.5479 58.0333 13.4625 54.6187 13.9209C52.2354 14.2417 50.5166 15.8917 51.0208 19.5813Z" fill="#20120C"/>
<path d="M55.0542 30.4894C55.0542 30.4894 53.9542 24.0728 48.5688 24.0728C44.4896 24.0728 43.573 28.7936 44.0542 33.904C44.5584 38.9915 46.4375 42.154 49.8063 41.0082C53.3584 39.7936 55.3292 37.8228 55.8563 35.004C55.8563 35.004 58.6292 34.4082 58.0563 31.4061C57.4375 28.1061 55.0542 30.4894 55.0542 30.4894Z" fill="#9C6639"/>
<path d="M49.8291 46.0271C49.8291 46.0271 51.2729 43.9875 50.5395 40.2979L55.5583 34.3167C55.5583 34.3167 56.4749 43.3687 59.4541 44.7896C59.4541 44.7896 57.6666 51.8021 54.1833 52.4208C50.6999 53.0396 50.4479 48.5937 49.8291 46.0271Z" fill="#9C6639"/>
<path d="M47.2625 31.4978C47.2625 31.4978 46.575 33.2166 45.9104 33.8124C45.2459 34.4082 46.575 34.9124 47.125 34.9582C47.675 35.0041 47.2625 31.4978 47.2625 31.4978Z" fill="#89532E"/>
<path d="M55.1457 34.477C55.2374 34.9811 55.7187 35.302 56.2228 35.2103C56.727 35.1186 57.0478 34.6374 56.9562 34.1332C56.8645 33.6291 56.3832 33.3082 55.8791 33.3999C55.3749 33.5145 55.0541 33.9957 55.1457 34.477Z" fill="white"/>
<path d="M50.6084 40.5499C50.6084 40.5499 52.9688 39.1749 53.748 38.1207C54.5271 37.0666 54.0459 40.4124 53.7251 41.0999C53.1292 42.2686 51.9146 43.1853 50.6084 43.827C50.6084 43.827 50.9063 42.3603 50.6084 40.5499Z" fill="#89532E"/>
<path d="M30.6479 60.5104C32.5729 55.5833 43.7563 48.2729 49.8063 46.0271C49.8063 46.0271 50.1729 49.3271 52.3729 49.35C55.1 49.3958 58.0104 47.4021 59.4313 44.7896C59.4313 44.7896 73.5479 46.0729 86.8625 61.2896C86.8625 61.2896 78.4979 73.6187 68.5063 75.2916C33.5584 81.0896 30.6479 60.5104 30.6479 60.5104Z" fill="#FDDDDF"/>
<path d="M44.8334 31.8874C45.1751 31.8874 45.4521 31.6104 45.4521 31.2686C45.4521 30.9269 45.1751 30.6499 44.8334 30.6499C44.4916 30.6499 44.2146 30.9269 44.2146 31.2686C44.2146 31.6104 44.4916 31.8874 44.8334 31.8874Z" fill="#20120C"/>
<path d="M50.1041 31.8415C50.4458 31.8415 50.7228 31.5645 50.7228 31.2227C50.7228 30.881 50.4458 30.604 50.1041 30.604C49.7624 30.604 49.4854 30.881 49.4854 31.2227C49.4854 31.5645 49.7624 31.8415 50.1041 31.8415Z" fill="#20120C"/>
<path d="M51.273 28.3812C50.8146 28.3354 50.3563 28.3354 49.898 28.3583C49.5542 28.3812 49.325 28.7708 49.3938 29.0687C49.4625 29.4354 49.7834 29.5958 50.1042 29.5729C50.448 29.55 50.7917 29.5729 51.1355 29.5958C51.9375 29.6875 52.075 28.45 51.273 28.3812Z" fill="#20120C"/>
<path d="M45.2228 28.2436C44.8791 28.2207 44.5124 28.2436 44.1916 28.3353C43.8708 28.404 43.6416 28.7707 43.7333 29.0915C43.8249 29.4124 44.1458 29.6186 44.4895 29.5499C44.5583 29.527 44.6041 29.5269 44.6728 29.504C44.6958 29.504 44.7416 29.504 44.7645 29.4811H44.7874C44.9249 29.4811 45.0624 29.4811 45.1999 29.4811C45.5208 29.504 45.8416 29.2061 45.8416 28.8853C45.8187 28.5415 45.5666 28.2665 45.2228 28.2436Z" fill="#20120C"/>
<path d="M45.7271 36.3103L49.1646 35.9666C49.1646 35.9666 49.2104 37.9603 47.5604 38.0978C45.9562 38.2582 45.7271 36.3103 45.7271 36.3103Z" fill="white"/>
</g>
</g>
</g>
<defs>
<filter id="filter0_d_618_20845" x="0" y="0" width="110" height="110" filterUnits="userSpaceOnUse" color-interpolation-filters="sRGB">
<feFlood flood-opacity="0" result="BackgroundImageFix"/>
<feColorMatrix in="SourceAlpha" type="matrix" values="0 0 0 0 0 0 0 0 0 0 0 0 0 0 0 0 0 0 127 0" result="hardAlpha"/>
<feMorphology radius="15" operator="erode" in="SourceAlpha" result="effect1_dropShadow_618_20845"/>
<feOffset dy="20"/>
<feGaussianBlur stdDeviation="20"/>
<feComposite in2="hardAlpha" operator="out"/>
<feColorMatrix type="matrix" values="0 0 0 0 0.466667 0 0 0 0 0.478431 0 0 0 0 0.564706 0 0 0 0.5 0"/>
<feBlend mode="normal" in2="BackgroundImageFix" result="effect1_dropShadow_618_20845"/>
<feBlend mode="normal" in="SourceGraphic" in2="effect1_dropShadow_618_20845" result="shape"/>
</filter>
<clipPath id="clip0_618_20845">
<rect width="68.75" height="68.75" fill="white" transform="translate(23.75 5.625)"/>
</clipPath>
</defs>
</svg>
