<svg width="110" height="110" viewBox="0 0 110 110" fill="none" xmlns="http://www.w3.org/2000/svg">
<g filter="url(#filter0_d_618_7388)">
<circle cx="55" cy="35" r="30" fill="white"/>
</g>
<mask id="mask0_618_7388" style="mask-type:alpha" maskUnits="userSpaceOnUse" x="30" y="10" width="50" height="50">
<circle cx="55" cy="35" r="25" fill="#C4C4C4"/>
</mask>
<g mask="url(#mask0_618_7388)">
<g clip-path="url(#clip0_618_7388)">
<path d="M46.4134 19.3127C46.4134 19.3127 50.0264 14.8135 56.2003 16.3875C65.4335 18.7276 63.4678 26.1519 60.1594 29.3139C53.2933 35.8606 61.9313 41.2513 61.0038 48.0487C59.6334 58.1475 50.9538 58.7603 47.3408 58.3982C42.8419 57.9385 30.7709 55.278 31.1585 44.1764C31.3107 39.9001 37.0694 35.4706 38.4398 29.0492C39.2704 25.1212 40.4194 19.4102 46.4134 19.3127Z" fill="#20120C"/>
<path d="M49.2374 30.3726C49.2374 30.3726 49.5835 24.0626 54.7469 23.4637C58.6645 23.0179 60.0626 27.4753 60.1457 32.4481C60.2426 37.4347 58.7752 40.6942 55.4114 39.942C51.8676 39.162 49.7635 37.4904 48.9329 34.816C48.9329 34.816 46.2058 34.5374 46.4273 31.5844C46.6765 28.325 49.2374 30.3726 49.2374 30.3726Z" fill="#E5AF9C"/>
<path d="M58.0969 45.416C58.0969 45.416 53.9994 44.6638 54.65 39.3429L49.1821 34.1194C49.1821 34.1194 48.9744 43.9117 45.2645 44.831C45.2645 44.831 47.3548 54.3586 52.975 54.6233C56.3804 54.7765 57.7924 47.9651 58.0969 45.416Z" fill="#E5AF9C"/>
<path d="M56.8095 30.3447C56.8095 30.3447 57.4878 32.0162 58.1522 32.5873C58.8029 33.1584 57.5155 33.6599 56.9894 33.7156C56.4496 33.7574 56.8095 30.3447 56.8095 30.3447Z" fill="#D39784"/>
<path d="M54.6224 39.747C54.6224 39.747 52.2137 38.6744 51.3416 37.7411C50.4695 36.8079 51.3416 39.9559 51.7015 40.6106C52.3521 41.7667 53.6672 42.7975 55.093 42.9646C55.0792 42.9646 54.4009 41.5995 54.6224 39.747Z" fill="#D39784"/>
<path d="M58.0969 45.4161C58.0969 45.4161 55.619 53.0493 53.6671 53.0633C52.3659 53.0772 47.3132 46.809 45.2506 44.8311C45.2506 44.8311 27.9885 46.5722 18.5753 63.3848C18.5753 63.3848 45.5413 93.3746 76.1204 67.2154C76.1204 67.2154 72.7012 51.6982 58.0969 45.4161Z" fill="#C5E3FF"/>
<path d="M59.0243 30.8183C58.6803 30.8183 58.4014 30.5377 58.4014 30.1915C58.4014 29.8453 58.6803 29.5647 59.0243 29.5647C59.3683 29.5647 59.6472 29.8453 59.6472 30.1915C59.6472 30.5377 59.3683 30.8183 59.0243 30.8183Z" fill="#20120C"/>
<path d="M53.1277 30.2322C53.0732 29.8904 53.3044 29.5689 53.6441 29.514C53.9838 29.4592 54.3034 29.6918 54.3579 30.0337C54.4124 30.3755 54.1812 30.697 53.8415 30.7519C53.5018 30.8067 53.1822 30.5741 53.1277 30.2322Z" fill="#20120C"/>
<path d="M52.5597 27.2663C53.0165 27.2245 53.4733 27.2245 53.9302 27.2523C54.2624 27.2802 54.4977 27.6563 54.4424 27.9766C54.387 28.3388 54.0686 28.5199 53.7225 28.492C53.3764 28.4642 53.0304 28.4781 52.6843 28.5199C51.8953 28.5895 51.7707 27.3498 52.5597 27.2663Z" fill="#20120C"/>
<path d="M58.6367 27.1408C58.9828 27.1129 59.3427 27.1547 59.675 27.2244C59.9933 27.294 60.2287 27.6562 60.1318 27.9766C60.0349 28.3109 59.7165 28.5059 59.3843 28.4362C59.3289 28.4223 59.2597 28.4084 59.2043 28.3944C59.1766 28.3944 59.1489 28.3805 59.1212 28.3805C59.1212 28.3805 59.1074 28.3805 59.0935 28.3805C58.9551 28.3805 58.8167 28.3805 58.6783 28.3805C58.3599 28.3944 58.0276 28.1019 58.0276 27.7816C58.0415 27.4473 58.2907 27.1687 58.6367 27.1408Z" fill="#20120C"/>
<path d="M58.1384 35.3872L55.093 35.1782C55.093 35.1782 55.0515 36.3901 56.5188 36.4876C57.9169 36.5711 58.1384 35.3872 58.1384 35.3872Z" fill="white"/>
</g>
</g>
<defs>
<filter id="filter0_d_618_7388" x="0" y="0" width="110" height="110" filterUnits="userSpaceOnUse" color-interpolation-filters="sRGB">
<feFlood flood-opacity="0" result="BackgroundImageFix"/>
<feColorMatrix in="SourceAlpha" type="matrix" values="0 0 0 0 0 0 0 0 0 0 0 0 0 0 0 0 0 0 127 0" result="hardAlpha"/>
<feMorphology radius="15" operator="erode" in="SourceAlpha" result="effect1_dropShadow_618_7388"/>
<feOffset dy="20"/>
<feGaussianBlur stdDeviation="20"/>
<feComposite in2="hardAlpha" operator="out"/>
<feColorMatrix type="matrix" values="0 0 0 0 0.466667 0 0 0 0 0.478431 0 0 0 0 0.564706 0 0 0 0.5 0"/>
<feBlend mode="normal" in2="BackgroundImageFix" result="effect1_dropShadow_618_7388"/>
<feBlend mode="normal" in="SourceGraphic" in2="effect1_dropShadow_618_7388" result="shape"/>
</filter>
<clipPath id="clip0_618_7388">
<rect width="67.9688" height="71.875" fill="white" transform="matrix(-1 0 0 1 83.125 6.09375)"/>
</clipPath>
</defs>
</svg>
