<svg width="110" height="110" viewBox="0 0 110 110" fill="none" xmlns="http://www.w3.org/2000/svg">
<g filter="url(#filter0_d_618_20743)">
<circle cx="55" cy="35" r="30" fill="white"/>
</g>
<mask id="mask0_618_20743" style="mask-type:alpha" maskUnits="userSpaceOnUse" x="30" y="10" width="50" height="50">
<circle cx="55" cy="35" r="25" fill="#C4C4C4"/>
</mask>
<g mask="url(#mask0_618_20743)">
<mask id="mask1_618_20743" style="mask-type:alpha" maskUnits="userSpaceOnUse" x="30" y="10" width="50" height="50">
<circle cx="55" cy="35" r="25" fill="#C4C4C4"/>
</mask>
<g mask="url(#mask1_618_20743)">
<g clip-path="url(#clip0_618_20743)">
<path d="M55.5207 74.6269C35.7376 74.6269 19.7003 58.5504 19.7003 38.719C19.7003 18.8876 35.7376 2.81104 55.5207 2.81104C75.3037 2.81104 91.3411 18.8876 91.3411 38.719C91.3411 58.5504 75.3037 74.6269 55.5207 74.6269Z" fill="white"/>
<path d="M49.9578 20.4496C49.9578 20.4496 52.3732 15.2402 58.9458 16.737C68.7536 18.9528 66.1919 23.5899 63.3667 27.4639C57.4527 35.5494 59.6192 36.5913 55.7839 36.3565C51.0411 36.0777 50.3238 36.5033 47.0447 29.4449C45.1417 25.3802 43.634 20.7137 49.9578 20.4496Z" fill="#20120C"/>
<path d="M51.861 28.6672C51.861 28.6672 52.227 22.2839 57.4968 21.4475C61.6249 20.7871 63.2205 25.5269 63.4547 30.7656C63.6743 36.0044 62.2104 39.4822 58.6386 38.7778C54.8766 38.0441 52.4758 36.1951 51.5243 33.407C51.5243 33.407 48.7723 33.3336 48.9187 30.2227C49.0651 26.921 51.861 28.6672 51.861 28.6672Z" fill="#E5AF9C"/>
<path d="M61.6101 44.4861C61.6101 44.4861 58.3018 43.3709 58.8581 37.7359L51.0997 32.4092C51.0997 32.4092 51.9341 43.1508 48.0402 44.2073C48.0402 44.2073 50.4995 54.1858 56.4427 54.3179C60.0438 54.3912 61.3613 47.1715 61.6101 44.4861Z" fill="#E5AF9C"/>
<path d="M59.7363 28.1829C59.7363 28.1829 60.6293 30.3693 61.3319 30.9563C62.0346 31.5433 60.966 32.5558 59.5753 32.233C59.0191 32.1156 59.7363 28.1829 59.7363 28.1829Z" fill="#D39784"/>
<path d="M58.7995 38.8219C58.7995 38.8219 55.2277 37.7653 53.1197 36.0338C52.0804 35.1827 52.8123 37.6333 54.4372 39.4382C55.374 40.4801 57.8626 41.9328 59.3704 42.0649C59.3557 42.0649 58.8141 41.0524 58.7995 38.8219Z" fill="#D39784"/>
<path d="M61.6102 44.4861C61.6102 44.4861 59.4729 46.335 56.2378 46.3497C54.8618 46.3497 50.2361 46.247 48.0256 44.2073C48.0256 44.2073 26.7266 46.4818 20.315 64.4578C20.315 64.4578 53.0613 92.2508 84.6951 63.8855C84.6951 63.9001 77.8589 47.3035 61.6102 44.4861Z" fill="#477849"/>
<path d="M61.537 28.4324C61.5516 28.7993 61.8444 29.0781 62.2103 29.0634C62.5763 29.0487 62.8544 28.7552 62.8398 28.3884C62.8251 28.0215 62.5324 27.7427 62.1664 27.7574C61.8151 27.7721 61.537 28.0656 61.537 28.4324Z" fill="#20120C"/>
<path d="M55.9452 28.5205C55.9598 28.8874 56.2526 29.1662 56.6185 29.1515C56.9845 29.1369 57.2626 28.8434 57.248 28.4765C57.2333 28.1097 56.9406 27.8309 56.5746 27.8455C56.2233 27.8602 55.9452 28.1684 55.9452 28.5205Z" fill="#20120C"/>
<path d="M55.2864 25.5122C55.7694 25.4535 56.2525 25.4389 56.7356 25.4535C57.0869 25.4682 57.3358 25.8644 57.2919 26.2019C57.2333 26.5835 56.9113 26.7742 56.5453 26.7595C56.1793 26.7449 55.8134 26.7742 55.4474 26.8182C54.613 26.921 54.4373 25.615 55.2864 25.5122Z" fill="#20120C"/>
<path d="M61.6979 25.2188C62.0639 25.1894 62.4445 25.2041 62.7958 25.2775C63.1325 25.3362 63.396 25.7177 63.3081 26.0552C63.2203 26.4074 62.8836 26.6275 62.5323 26.5688C62.4737 26.5541 62.4006 26.5394 62.342 26.5394C62.3127 26.5394 62.2834 26.5394 62.2542 26.5248C62.2542 26.5248 62.2395 26.5248 62.2249 26.5248C62.0785 26.5248 61.9321 26.5248 61.7857 26.5394C61.4491 26.5688 61.0977 26.2753 61.0831 25.9231C61.0831 25.5563 61.3319 25.2481 61.6979 25.2188Z" fill="#20120C"/>
<path d="M61.3906 33.9207L58.1702 33.7739C58.1702 33.7739 58.1555 35.0506 59.7072 35.1093C61.1857 35.168 61.3906 33.9207 61.3906 33.9207Z" fill="white"/>
<path d="M51.8611 28.6672L51.9196 28.2269L54.496 28.5644C54.5985 27.3905 55.5646 26.4513 56.765 26.422C57.9214 26.3926 58.9022 27.2144 59.1071 28.315C59.5463 28.0655 59.9708 28.1389 60.2782 28.2856C60.4392 27.1851 61.3761 26.3193 62.5325 26.2899C63.8207 26.2606 64.8893 27.2878 64.9332 28.5791C64.9625 29.8558 63.9378 30.927 62.6496 30.9563C61.3907 30.9857 60.3514 30.0172 60.2635 28.7699C60.1025 28.6378 59.6487 28.3883 59.151 28.7992C59.1217 30.0465 58.1263 31.0591 56.8821 31.0884C55.6524 31.1178 54.6277 30.1933 54.496 28.99L51.8611 28.6672ZM62.635 30.5161C63.5572 30.4868 64.3038 29.8117 64.4502 28.946L63.2791 28.7845L63.2205 28.3296L64.4648 28.5057C64.4062 27.4932 63.5426 26.6861 62.5179 26.7155C61.4785 26.7448 60.6441 27.6106 60.6734 28.6672C60.7173 29.709 61.5957 30.5455 62.635 30.5161ZM56.8674 30.6629C57.9068 30.6335 58.7411 29.7677 58.7119 28.7112C58.6826 27.6546 57.8189 26.8329 56.765 26.8622C55.7256 26.8916 54.8912 27.7573 54.9205 28.8139C54.9498 29.8558 55.8281 30.6922 56.8674 30.6629Z" fill="white"/>
<path d="M61.6101 44.4861L58.2725 49.9449L55.6522 46.335L51.9633 50.1063L48.0256 44.2073C48.0256 44.2073 54.5251 48.7856 61.6101 44.4861Z" fill="white"/>
</g>
</g>
</g>
<defs>
<filter id="filter0_d_618_20743" x="0" y="0" width="110" height="110" filterUnits="userSpaceOnUse" color-interpolation-filters="sRGB">
<feFlood flood-opacity="0" result="BackgroundImageFix"/>
<feColorMatrix in="SourceAlpha" type="matrix" values="0 0 0 0 0 0 0 0 0 0 0 0 0 0 0 0 0 0 127 0" result="hardAlpha"/>
<feMorphology radius="15" operator="erode" in="SourceAlpha" result="effect1_dropShadow_618_20743"/>
<feOffset dy="20"/>
<feGaussianBlur stdDeviation="20"/>
<feComposite in2="hardAlpha" operator="out"/>
<feColorMatrix type="matrix" values="0 0 0 0 0.466667 0 0 0 0 0.478431 0 0 0 0 0.564706 0 0 0 0.5 0"/>
<feBlend mode="normal" in2="BackgroundImageFix" result="effect1_dropShadow_618_20743"/>
<feBlend mode="normal" in="SourceGraphic" in2="effect1_dropShadow_618_20743" result="shape"/>
</filter>
<clipPath id="clip0_618_20743">
<rect width="71.875" height="73.9583" fill="white" transform="matrix(-1 0 0 1 91.4583 2.70825)"/>
</clipPath>
</defs>
</svg>
